<svg id="prata" xmlns="http://www.w3.org/2000/svg" width="359.272" height="160" viewBox="0 0 359.272 160">
  <ellipse id="Elipse_30" data-name="Elipse 30" cx="55.5" cy="55" rx="55.5" ry="55" transform="translate(119.326)" fill="#ffe109"/>
  <path id="Caminho_3494" data-name="Caminho 3494" d="M76.234,126.5H17.476L0,159.444H20.691L26.114,149.4H68.5a4.085,4.085,0,0,0,3.515-1.908l8.437-13.057A5.076,5.076,0,0,0,76.234,126.5ZM56.146,137.95l-1.707,2.712a1.532,1.532,0,0,1-1.205.7h-22.1l2.913-5.625H54.94A1.455,1.455,0,0,1,56.146,137.95Z" transform="translate(0 0.556)" fill="#e01b24"/>
  <path id="Caminho_3495" data-name="Caminho 3495" d="M153.833,126.5H95.076L77.6,159.444H98.291l5.424-10.044h18.38l1.707,10.044h18.682L140.676,149.4H146a4.085,4.085,0,0,0,3.515-1.908l8.437-13.057A5.038,5.038,0,0,0,153.833,126.5Zm-20.088,11.45-1.707,2.712a1.532,1.532,0,0,1-1.205.7h-22.1l3.013-5.625h20.891A1.45,1.45,0,0,1,133.746,137.95Z" transform="translate(0.341 0.556)" fill="#e01b24"/>
  <path id="Caminho_3496" data-name="Caminho 3496" d="M215.491,126.5H187.77L149,159.444h12.153l7.633-6.83h33.446l2.21,6.83H224.53Zm-34.852,17.376,9.542-8.136h6.328l2.411,8.136Z" transform="translate(0.655 0.556)" fill="#e01b24"/>
  <path id="Caminho_3497" data-name="Caminho 3497" d="M349.091,126.5H321.37L282.6,159.444h12.153l7.533-6.83h33.446l2.21,6.83H358.03Zm-34.852,17.376,9.642-8.136h6.227l2.411,8.136Z" transform="translate(1.242 0.556)" fill="#e01b24"/>
  <path id="Caminho_3498" data-name="Caminho 3498" d="M232.019,126.5l-4.419,8.437h22.7L236.84,159.444h21.695l13.258-24.306h22.8l5.223-8.638Z" transform="translate(1 0.556)" fill="#e01b24"/>
  <path id="Caminho_3499" data-name="Caminho 3499" d="M20.718,45.821l250.5-18.782V18.2l18.18,7.834,41.682-3.716a3.466,3.466,0,0,1,3.616,4.52l-1.908,5.625a4.064,4.064,0,0,1-2.511,2.611L293.311,49.838l-3.716-2.411L236.764,73.743l107.671,5.725a3.44,3.44,0,0,1,3.114,4.218h0a3.35,3.35,0,0,1-3.314,2.511l-123.641-.5c-7.031-4.62-15.769-5.424-15.769-5.424s-9.642-24.105-30.634-24.105a24.679,24.679,0,0,0-14.062,3.917,18.579,18.579,0,0,0-3.415,2.31l-28.424,22.9-108.173-.5A3.6,3.6,0,0,1,16.5,81.176h0a3.581,3.581,0,0,1,3.515-3.616l50.521-.7C84,70.027,105.69,47.428,105.69,47.428L21.321,53.856A4.074,4.074,0,0,1,17,50.341h0A4.152,4.152,0,0,1,20.718,45.821Z" transform="translate(0.073 0.08)" fill="#e01b24"/>
</svg>
